<svg version="1.1" id="Layer_1" xmlns="http://www.w3.org/2000/svg" xmlns:xlink="http://www.w3.org/1999/xlink" x="0px" y="0px"
	 width="100%" viewBox="0 0 720 848" enable-background="new 0 0 720 848" xml:space="preserve">
<path fill="#000000" opacity="1.000000" stroke="none" 
	d="
M721.000000,391.531342 
	C717.055786,390.577820 710.922974,393.021301 708.280457,397.082855 
	C707.509888,398.267303 707.467102,400.100922 704.647705,400.239319 
	C703.994080,395.382141 702.964233,390.457306 702.727905,385.494690 
	C701.763733,365.250793 698.644104,345.350586 694.211792,325.595184 
	C692.269409,316.937622 688.812622,308.709564 687.455078,299.895905 
	C686.996582,296.918854 683.181091,295.574066 682.876465,292.374573 
	C682.563721,289.089935 681.353577,285.904510 680.990417,282.807648 
	C679.697693,271.784363 674.515991,262.274597 670.220825,252.469574 
	C661.009277,231.441299 649.593018,211.593414 636.447693,192.764923 
	C627.610901,180.107544 617.942688,168.135040 607.685242,156.564713 
	C587.485046,133.778900 564.398926,114.473366 538.961121,97.913261 
	C503.525299,74.844345 465.044098,59.258656 423.482971,51.261055 
	C398.931976,46.536716 374.144073,44.145164 349.224487,45.496067 
	C321.890045,46.977886 294.926025,51.355984 268.696259,59.618595 
	C251.092407,65.163971 233.936340,71.852524 217.544357,80.285088 
	C193.718903,92.541687 171.591675,107.327034 151.109634,124.745300 
	C132.280151,140.758240 115.400482,158.536194 100.354889,177.995560 
	C87.966415,194.018326 77.000748,211.063507 67.457321,229.009277 
	C55.732304,251.057358 46.236420,273.981384 39.006821,297.868073 
	C33.239994,316.921753 28.992876,336.283569 26.232838,356.016571 
	C23.375547,376.444916 21.919422,396.927704 22.366014,417.538361 
	C22.927458,443.449677 25.989412,469.072449 31.673780,494.365387 
	C38.247089,523.613708 48.003662,551.699829 61.263149,578.656738 
	C74.660027,605.892944 91.031845,631.074768 110.495239,654.306580 
	C117.746704,662.961975 125.193634,671.441040 133.363495,679.245422 
	C153.460251,698.443115 175.253403,715.373840 199.183304,729.634705 
	C233.805176,750.267395 271.114105,763.470764 310.635681,770.410950 
	C332.575226,774.263672 354.843628,775.736328 377.104919,774.531616 
	C404.306122,773.059509 430.999298,768.330994 457.140869,760.402588 
	C491.471313,749.990479 522.886536,733.766541 552.208008,713.369812 
	C562.679871,706.085388 572.465942,697.870605 581.953613,689.273743 
	C588.121521,683.684937 594.245117,678.062012 599.944946,672.032166 
	C620.391724,650.401245 638.343445,626.916748 653.162964,601.003906 
	C666.320862,577.996277 677.006104,553.955078 685.158325,528.787231 
	C691.241943,510.005829 695.552429,490.796051 698.807739,471.300720 
	C700.920166,458.649475 702.535522,446.016266 702.761475,433.200989 
	C702.796631,431.206238 703.279541,429.337036 705.353943,426.900574 
	C705.938293,433.416473 707.517761,439.109283 706.277161,444.767975 
	C704.483459,452.949768 703.562073,461.235504 703.773865,469.493469 
	C704.030029,479.480255 701.706482,489.419983 703.501038,499.403503 
	C703.892334,501.580627 703.394226,503.806305 702.526062,505.766663 
	C698.491394,514.877136 698.864014,524.405090 698.697205,534.107361 
	C698.512146,544.871460 697.636841,555.638245 697.829407,566.437317 
	C697.881409,569.354980 696.480896,571.577881 693.250488,572.066833 
	C690.288147,572.515259 688.982971,574.663269 688.541016,577.229370 
	C687.327271,584.275574 685.811218,591.295776 685.925720,598.509644 
	C685.957886,600.533630 686.348328,602.461609 687.169861,604.329285 
	C688.610779,607.604980 690.373535,608.363037 693.069458,605.472656 
	C694.301147,604.152100 695.759949,602.352539 697.308838,602.132874 
	C706.200317,600.872498 712.761841,594.814270 720.774780,591.166870 
	C721.000000,677.000000 721.000000,763.000061 721.000000,849.000000 
	C707.564941,849.000000 694.251099,849.000000 680.592896,848.808289 
	C679.048889,845.423828 675.625000,847.221008 673.469360,845.492371 
	C667.823608,840.964844 657.206360,842.319824 652.788879,847.643066 
	C652.731262,847.712585 653.576294,848.531128 654.000000,849.000000 
	C436.376404,849.000000 218.752808,849.000000 1.064610,849.000000 
	C1.064610,566.432373 1.064610,283.864685 1.064610,1.000000 
	C235.020813,1.000000 469.041748,1.000000 703.287354,1.187530 
	C702.605469,2.050366 701.242676,2.556876 701.915833,4.055507 
	C703.655701,7.929018 703.899780,12.114709 704.623352,16.203955 
	C704.958618,18.098597 706.223511,19.032986 707.757263,20.254534 
	C711.738892,23.425776 716.529541,24.246889 721.000000,26.000000 
	C721.000000,147.687561 721.000000,269.375122 721.000000,391.531342 
M307.816620,14.068573 
	C305.117401,14.270185 302.657898,15.128252 302.520752,18.211908 
	C302.389496,21.163942 304.869873,22.450113 307.212524,23.366478 
	C312.259338,25.340601 321.220917,22.866552 324.569611,18.360054 
	C319.889343,14.432126 313.994415,15.144926 307.816620,14.068573 
z"/>
<path fill="#000000" opacity="1.000000" stroke="none" 
	d="
M454.132874,325.932159 
	C460.436798,323.884705 466.658203,323.853149 472.717682,322.834473 
	C475.783569,322.319031 478.634888,321.576569 479.637024,318.066620 
	C480.127625,316.348450 481.700256,316.116791 483.111176,315.596344 
	C501.063385,308.974426 519.526550,303.946014 538.027100,299.292603 
	C551.286072,295.957611 564.414673,291.485748 578.648315,292.391052 
	C586.302612,292.877869 594.151794,290.902435 601.862305,289.709869 
	C607.948120,288.768585 613.905823,290.656647 620.034607,289.779266 
	C630.218201,288.321381 640.424805,289.807770 650.091614,292.807556 
	C661.756470,296.427399 672.546021,302.248505 683.295410,309.421692 
	C680.495117,310.817688 677.973999,310.826019 675.995972,310.199585 
	C665.106995,306.751068 653.786560,309.226349 642.762085,307.378693 
	C626.171204,304.598145 609.531372,306.814148 592.969360,308.269745 
	C583.683228,309.085876 574.167847,310.844574 565.919250,314.795227 
	C550.384460,322.235657 533.362854,323.878357 517.407288,329.321472 
	C503.410065,334.096497 488.777771,337.052643 475.472443,343.860321 
	C467.845306,347.762787 459.495514,349.609985 451.205750,351.348724 
	C423.512482,357.157349 397.024811,366.583893 371.505615,378.553345 
	C360.731049,383.607056 351.077026,390.922516 340.807770,398.420837 
	C349.852509,401.576904 358.300201,404.847900 366.947083,407.459320 
	C377.530151,410.655518 387.547333,414.905396 397.181915,420.363647 
	C409.202362,427.173645 421.502197,433.504395 433.817963,439.773773 
	C440.505463,443.178070 447.393341,446.128052 452.801575,451.584717 
	C455.816315,454.626404 458.294495,453.972595 460.124786,450.148102 
	C460.768036,448.804047 461.397125,447.231323 462.504150,446.366516 
	C470.637787,440.012604 473.733398,429.987000 480.170532,422.390686 
	C483.713837,418.209259 486.678162,413.533295 488.240295,408.127045 
	C490.620789,399.888672 494.137268,392.174469 499.492157,385.427002 
	C504.202972,379.491089 504.523041,371.250702 510.029816,365.736206 
	C510.958893,364.805817 509.932159,363.519196 509.759155,362.402039 
	C508.109283,351.749786 519.600220,337.905304 530.372437,339.163513 
	C536.143433,339.837585 543.349426,340.786224 546.853943,346.781555 
	C549.968811,352.110443 551.446716,357.884796 548.876221,364.424072 
	C545.660522,372.604767 543.477173,381.190002 540.806641,389.587402 
	C540.303101,391.170807 539.910767,392.920715 538.949524,394.206940 
	C530.317993,405.756653 524.374878,418.885315 517.821472,431.552124 
	C510.006012,446.658203 498.440887,458.413147 487.175751,470.584198 
	C484.447235,473.532166 481.297607,475.975677 477.583496,477.645935 
	C468.827881,481.583466 463.533325,489.351166 457.828888,496.398285 
	C449.557800,506.616241 442.094025,517.478271 432.250153,526.362488 
	C430.552063,527.895020 428.813354,529.789062 428.033905,531.868652 
	C421.789612,548.528503 410.731323,562.549805 402.712830,578.264160 
	C396.114349,591.195496 389.052734,603.729431 385.347809,617.899841 
	C383.634155,624.454346 383.684174,631.657288 379.705353,637.408936 
	C376.732452,641.706421 375.377502,646.415344 374.522247,651.300964 
	C372.487335,662.925476 371.550934,674.694641 370.263672,686.420166 
	C369.137848,696.675293 369.084137,706.855225 369.038391,717.148132 
	C369.000000,725.786072 368.873840,734.637634 368.385315,743.377075 
	C368.037323,749.603149 369.083374,755.646973 371.866943,761.331177 
	C372.517029,762.658752 372.987335,764.138977 373.205231,765.598938 
	C373.567444,768.026367 373.264954,770.384033 370.588104,771.449646 
	C367.803802,772.558044 365.659546,771.442810 364.246460,769.010986 
	C361.108124,763.610291 359.255585,757.774048 358.677277,751.543518 
	C358.523895,749.891174 358.079681,748.212952 358.240906,746.593506 
	C358.963287,739.336243 354.962219,733.335022 353.022766,726.810730 
	C352.202362,724.050964 351.557098,721.407593 351.565399,718.547852 
	C351.577850,714.248962 351.755554,710.034485 349.983215,705.812927 
	C347.858368,700.751709 349.509552,695.321533 349.677338,690.035645 
	C350.104645,676.572449 349.796722,663.049805 353.635498,649.927185 
	C354.289368,647.692017 354.623535,645.304016 355.626526,643.239868 
	C362.093903,629.930237 362.298981,614.795532 367.886261,601.278198 
	C374.051086,586.363647 377.797272,570.481201 385.825897,556.324585 
	C388.604309,551.425537 391.615723,546.658630 394.681396,541.564331 
	C392.297974,540.672974 391.155975,541.907959 389.948242,542.913635 
	C375.113403,555.267212 358.515961,564.464966 340.225342,570.602051 
	C337.608002,571.480164 335.787537,573.522095 333.468781,574.802551 
	C311.452576,586.960327 288.421112,595.993042 263.106140,598.512634 
	C256.696442,599.150574 250.369278,600.963806 244.100464,602.604797 
	C226.837997,607.123657 209.296951,610.459412 191.530273,611.149780 
	C168.352188,612.050476 146.763138,604.794617 125.423309,596.314514 
	C115.509430,592.375000 105.805946,588.332092 96.865692,582.551514 
	C82.021446,572.953491 68.852432,561.336243 56.447739,548.806763 
	C55.038322,547.383179 54.104019,545.748596 55.144764,543.902100 
	C56.551453,541.406311 58.291477,543.411011 59.880718,543.892517 
	C60.833614,544.181213 61.752594,544.629272 62.723156,544.804504 
	C68.808449,545.903748 73.794456,548.573425 77.896004,553.457825 
	C85.714722,562.768921 97.052139,566.389404 107.810745,570.795166 
	C115.046509,573.758301 122.370239,576.515930 129.711761,579.209778 
	C144.708038,584.712402 159.776077,589.991333 176.191437,587.683960 
	C198.186829,584.592224 220.657639,586.783142 242.477142,581.699341 
	C243.776245,581.396667 245.398712,581.601440 245.861923,580.111328 
	C247.124786,576.048889 250.692062,575.518860 253.964813,574.332703 
	C263.556427,570.856201 273.337616,568.215027 283.555542,567.577515 
	C294.075775,566.921204 302.832550,562.123230 311.357117,556.450928 
	C317.171906,552.581726 323.315338,549.206604 329.309692,545.606995 
	C332.250977,543.840698 335.543762,542.624695 336.516541,538.590698 
	C337.011810,536.536804 339.281067,535.893005 341.388214,535.701111 
	C347.431488,535.150635 352.679413,533.271179 356.200775,527.796570 
	C357.562073,525.680237 360.263245,524.980164 362.427399,523.748169 
	C370.034546,519.417908 378.636536,516.619690 384.301483,509.282288 
	C385.001099,508.376160 386.607391,507.993378 387.868591,507.736298 
	C390.125732,507.276184 391.808289,506.210815 393.152496,503.806946 
	C385.199432,498.514740 378.606506,491.682251 371.371155,485.596313 
	C362.920166,478.487915 357.569061,468.987793 351.464813,460.076691 
	C349.477875,457.176117 347.504913,454.313477 344.939240,451.899139 
	C336.190460,443.666351 329.630096,433.951843 325.020172,422.862762 
	C324.015472,420.445953 322.981964,417.939087 320.466705,415.641235 
	C316.125000,419.613495 311.289490,423.073395 306.859009,426.919098 
	C298.089294,434.531342 289.131348,442.118530 281.554871,450.847595 
	C276.300415,456.901489 272.261688,463.988068 266.628448,470.000092 
	C260.749573,476.274384 253.327301,481.200165 249.106689,489.008301 
	C241.976654,502.198792 231.893814,513.590393 225.556900,527.241943 
	C220.025635,539.157837 217.029114,551.655945 217.704971,564.955200 
	C218.322647,577.109680 209.219193,585.138489 197.262253,583.422485 
	C195.132477,583.116882 192.947205,583.220947 190.795151,583.043640 
	C184.660690,582.538147 180.917831,577.310364 182.685547,571.425903 
	C183.622375,568.307434 183.251816,565.212036 183.460754,562.097290 
	C184.198212,551.104248 183.956573,540.135498 187.840973,529.303711 
	C192.390060,516.618408 200.053375,505.745392 205.648804,493.778503 
	C211.983719,480.230103 220.520584,468.189453 228.460815,455.715942 
	C235.471771,444.702179 244.091431,435.090210 253.790939,426.281342 
	C262.655670,418.230591 271.261475,409.887726 280.359375,402.087463 
	C286.296814,396.996918 292.428223,392.071136 299.598206,388.890564 
	C304.770935,386.596039 307.190399,381.524536 311.546234,378.502380 
	C321.896118,371.321594 330.697540,362.560638 338.425934,352.613281 
	C341.371002,348.822601 344.805328,345.309448 348.462006,342.192230 
	C363.139618,329.680115 376.366028,315.625946 386.629669,299.490143 
	C400.017151,278.443329 414.549133,258.043610 425.991516,235.803009 
	C430.615601,226.815231 432.959137,216.857162 437.053894,207.547318 
	C440.933167,198.727295 445.730743,190.335358 449.136658,181.274689 
	C452.392242,172.614014 456.546509,164.288300 460.388031,155.852783 
	C461.314362,153.818665 462.009552,151.326492 465.761108,151.477005 
	C466.748749,158.614777 467.223297,165.888718 465.584656,172.912689 
	C463.442596,182.094589 463.677826,191.609085 461.260315,200.672455 
	C458.612976,210.597443 455.855408,220.523041 450.857544,229.637009 
	C440.463623,248.591293 431.417480,268.223480 419.231506,286.275482 
	C410.672211,298.955017 401.991669,311.588715 393.597565,324.397827 
	C389.789795,330.208344 385.606201,335.853729 379.814575,340.018127 
	C375.680176,342.990875 372.935425,347.195312 369.982941,351.578857 
	C379.387207,348.976807 388.904510,348.214752 397.756531,343.831055 
	C406.639709,339.431976 417.015289,339.166626 426.313171,335.275757 
	C435.187744,331.562073 444.576324,329.076569 454.132874,325.932159 
M370.428497,462.097229 
	C381.553925,475.686737 397.689941,475.662018 413.131500,478.053223 
	C407.816589,470.396515 405.686951,460.627014 396.397400,456.355194 
	C395.457977,455.923218 394.405457,454.738129 394.253540,453.769501 
	C393.663483,450.006805 390.760101,448.673401 387.914581,447.369202 
	C383.964630,445.558777 380.022278,443.712341 376.702271,440.908539 
	C372.325958,437.212708 367.578430,434.498505 362.083130,432.647919 
	C356.947754,430.918549 351.882202,428.681549 348.308136,424.033081 
	C346.574280,421.778015 343.662872,421.324982 340.220978,421.064209 
	C348.045380,436.722870 358.275055,449.671844 370.428497,462.097229 
M432.501129,477.956329 
	C437.325134,473.284821 437.801208,470.303223 433.401001,467.632751 
	C428.152161,464.447296 422.444244,462.018311 415.919281,458.753235 
	C420.306610,467.130463 424.096008,474.366058 428.078735,481.970734 
	C429.802582,480.418793 430.900940,479.429962 432.501129,477.956329 
M402.060669,490.818909 
	C407.222534,491.816010 412.389923,495.867523 418.722900,491.326996 
	C412.280945,488.786804 406.965057,490.192566 402.060669,490.818909 
z"/>
</svg>